/* XPM */
static char *result[] = {
/* columns rows colors chars-per-pixel */
"64 64 6 1 ",
"  c #ED1C24",
". c #F9AC0C",
"X c #FCCA07",
"o c #FDD705",
"O c #FFF200",
"+ c None",
/* pixels */
"++++++++++++++++++++++++++++++++++++++++++++++++++++++++++++++++",
"++++++++++++++++++++++++++++++++++++++++++++++++++++++++++++++++",
"++++++++++++++++++++++++++++++++++++++++++++++++++++++++++++++++",
"++++++++++++++++++++++++++++++++++++++++++++++++++++++++++++++++",
"++++++++++++++++++++++++++++++++++++++++++++++++++++++++++++++++",
"++++++++++++++++++++++++++++++++++++++++++++++++++++++++++++++++",
"++++++++++++++++++++++++++++++++++++++++++++++++++++++++++++++++",
"++++++++++++++++++++++++++++++++++++++++++++++++++++++++++++++++",
"++++++++++++++++++++++++++++OOOOOOOOOO++++++++++++++++++++++++++",
"++++++++++++++++++++++++++++OOOOOOOOOO++++++++++++++++++++++++++",
"++++++++++++++++++++++++OOOOOOOOOOOOOOOOOO++++++++++++++++++++++",
"++++++++++++++++++++++++OOOOOOOOOOOOOOOOOO++++++++++++++++++++++",
"++++++++++++++++++++OOOOOOOOOOOO  OOOOOOOOOOOO++++++++++++++++++",
"++++++++++++++++++++OOOOOOOOOOOO  OOOOOOOOOOOO++++++++++++++++++",
"++++++++++++++++++OOOOOOOOOOOOXX  XXOOOOOOOOOOOO++++++++++++++++",
"++++++++++++++++++OOOOOOOOOOOOXX  XXOOOOOOOOOOOO++++++++++++++++",
"++++++++++++++++OOOOOOOOOOOOOO  ..  OOOOOOOOOOOOOO++++++++++++++",
"++++++++++++++++OOOOOOOOOOOOOO  ..  OOOOOOOOOOOOOO++++++++++++++",
"++++++++++++++++OOOOOOOOOOOOOO  OO  OOOOOOOOOOOOOO++++++++++++++",
"++++++++++++++++OOOOOOOOOOOOOO  OO  OOOOOOOOOOOOOO++++++++++++++",
"++++++++++++++OOOOOOOOOOOOOOXX  OO  XXOOOOOOOOOOOOOO++++++++++++",
"++++++++++++++OOOOOOOOOOOOOOXX  OO  XXOOOOOOOOOOOOOO++++++++++++",
"++++++++++++++OOOOOOOOOOOOOO  XXOOXX  OOOOOOOOOOOOOO++++++++++++",
"++++++++++++++OOOOOOOOOOOOOO  XXOOXX  OOOOOOOOOOOOOO++++++++++++",
"++++++++++++++OOOOOOOOOOOOOO  OOOOOO  OOOOOOOOOOOOOO++++++++++++",
"++++++++++++++OOOOOOOOOOOOOO  OOOOOO  OOOOOOOOOOOOOO++++++++++++",
"++++++++++++OOOOOOOOOO                        OOOOOOOO++++++++++",
"++++++++++++OOOOOOOOOO                        OOOOOOOO++++++++++",
"++++++++++++OOOOOOOOOOOOOOXX  OOOOOO  XXOOOOOOOOOOOOOO++++++++++",
"++++++++++++OOOOOOOOOOOOOOXX  OOOOOO  XXOOOOOOOOOOOOOO++++++++++",
"++++++++++++OOOOOOOOOOOOOO  XXOOOOOOXX  OOOOOOOOOOOOOO++++++++++",
"++++++++++++OOOOOOOOOOOOOO  XXOOOOOOXX  OOOOOOOOOOOOOO++++++++++",
"++++++++++++OOOOOOOOOO                        OOOOOOOO++++++++++",
"++++++++++++OOOOOOOOOO                        OOOOOOOO++++++++++",
"++++++++++++OOOOOOOOOOOOXX  OOOOOOOOOO  OOOOOOOOOOOOOO++++++++++",
"++++++++++++OOOOOOOOOOOOXX  OOOOOOOOOO  OOOOOOOOOOOOOO++++++++++",
"++++++++++++OOOOOOOOOOOO  XXOOOOOOOOOO  XXOOOOOOOOOOOO++++++++++",
"++++++++++++OOOOOOOOOOOO  XXOOOOOOOOOO  XXOOOOOOOOOOOO++++++++++",
"++++++++++++++OOOOOOOOOO  OOOOOOOOOOOOXX  OOOOOOOOOO++++++++++++",
"++++++++++++++OOOOOOOOOO  OOOOOOOOOOOOXX  OOOOOOOOOO++++++++++++",
"++++++++++++++OOOOOOOOXX  OOOOOOOOOOOOOO  OOOOOOOOOO++++++++++++",
"++++++++++++++OOOOOOOOXX  OOOOOOOOOOOOOO  OOOOOOOOOO++++++++++++",
"++++++++++++++OOOOOOOO  XXOOOOOOOOOOOOOO  ooOOOOOOOO++++++++++++",
"++++++++++++++OOOOOOOO  XXOOOOOOOOOOOOOO  ooOOOOOOOO++++++++++++",
"++++++++++++++++OOOOOO  OOOOOOOOOOOOOOOOXX  OOOOOO++++++++++++++",
"++++++++++++++++OOOOOO  OOOOOOOOOOOOOOOOXX  OOOOOO++++++++++++++",
"++++++++++++++++OOOOOOOOOOOOOOOOOOOOOOOOOOOOOOOOOO++++++++++++++",
"++++++++++++++++OOOOOOOOOOOOOOOOOOOOOOOOOOOOOOOOOO++++++++++++++",
"++++++++++++++++++OOOOOOOOOOOOOOOOOOOOOOOOOOOOOO++++++++++++++++",
"++++++++++++++++++OOOOOOOOOOOOOOOOOOOOOOOOOOOOOO++++++++++++++++",
"++++++++++++++++++++OOOOOOOOOOOOOOOOOOOOOOOOOO++++++++++++++++++",
"++++++++++++++++++++OOOOOOOOOOOOOOOOOOOOOOOOOO++++++++++++++++++",
"++++++++++++++++++++++OOOOOOOOOOOOOOOOOOOOOO++++++++++++++++++++",
"++++++++++++++++++++++OOOOOOOOOOOOOOOOOOOOOO++++++++++++++++++++",
"++++++++++++++++++++++++++OOOOOOOOOOOOOO++++++++++++++++++++++++",
"++++++++++++++++++++++++++OOOOOOOOOOOOOO++++++++++++++++++++++++",
"++++++++++++++++++++++++++++++++++++++++++++++++++++++++++++++++",
"++++++++++++++++++++++++++++++++++++++++++++++++++++++++++++++++",
"++++++++++++++++++++++++++++++++++++++++++++++++++++++++++++++++",
"++++++++++++++++++++++++++++++++++++++++++++++++++++++++++++++++",
"++++++++++++++++++++++++++++++++++++++++++++++++++++++++++++++++",
"++++++++++++++++++++++++++++++++++++++++++++++++++++++++++++++++",
"++++++++++++++++++++++++++++++++++++++++++++++++++++++++++++++++",
"++++++++++++++++++++++++++++++++++++++++++++++++++++++++++++++++"
};
