/* XPM */
static char *result[] = {
/* columns rows colors chars-per-pixel */
"64 64 209 2 ",
"   c #020201",
".  c #090500",
"X  c #050901",
"o  c #0B0C03",
"O  c #070608",
"+  c #050C0A",
"@  c #0B0C0B",
"#  c #160E06",
"$  c #0F1106",
"%  c #0B130C",
"&  c #0E1A0E",
"*  c #06110E",
"=  c #141304",
"-  c #13140B",
";  c #1B190D",
":  c #1A130D",
">  c #000018",
",  c #0E1814",
"<  c #131413",
"1  c #151C10",
"2  c #1C1D13",
"3  c #1C1C1D",
"4  c #2D1309",
"5  c #281A0B",
"6  c #37190B",
"7  c #211B13",
"8  c #281C16",
"9  c #321E14",
"0  c #142012",
"q  c #1F2117",
"w  c #1F211B",
"e  c #1A2818",
"r  c #2D240E",
"t  c #34230B",
"y  c #39230C",
"u  c #392C0E",
"i  c #26241B",
"p  c #362615",
"a  c #3C2B14",
"s  c #3B2C1A",
"d  c #362718",
"f  c #3A3117",
"g  c #000025",
"h  c #02032A",
"j  c #06092F",
"k  c #070A30",
"l  c #080B37",
"z  c #11143B",
"x  c #1F2527",
"c  c #242424",
"v  c #2B2C25",
"b  c #292929",
"n  c #272C2A",
"m  c #362E24",
"M  c #2A3128",
"N  c #263124",
"B  c #383528",
"V  c #272935",
"C  c #2A3336",
"Z  c #333333",
"A  c #393A32",
"S  c #3C3C3C",
"D  c #373F36",
"F  c #421E17",
"G  c #41250F",
"H  c #412D16",
"J  c #482C1B",
"K  c #44341B",
"L  c #4A341E",
"P  c #463A1E",
"I  c #493817",
"U  c #4F3423",
"Y  c #473B20",
"T  c #4C3B23",
"R  c #413329",
"E  c #533324",
"W  c #503D25",
"Q  c #553E28",
"!  c #5A3B27",
"~  c #4E2827",
"^  c #652F29",
"/  c #663229",
"(  c #3A4339",
")  c #384036",
"_  c #4F401E",
"`  c #54421D",
"'  c #4D412A",
"]  c #54452A",
"[  c #5A442C",
"{  c #5A4328",
"}  c #4C4233",
"|  c #49493E",
" . c #43433B",
".. c #5D4C34",
"X. c #5B4732",
"o. c #634632",
"O. c #644B35",
"+. c #6C4C36",
"@. c #654D3C",
"#. c #6C4F3A",
"$. c #64523A",
"%. c #6B533D",
"&. c #68573A",
"*. c #74573B",
"=. c #2C3067",
"-. c #373B79",
";. c #3A4443",
":. c #434343",
">. c #464C47",
",. c #4C4C43",
"<. c #4E4E4D",
"1. c #464A4B",
"2. c #485047",
"3. c #55554F",
"4. c #4B565C",
"5. c #565552",
"6. c #5C5C59",
"7. c #575653",
"8. c #645144",
"9. c #6C5A43",
"0. c #695945",
"q. c #725641",
"w. c #755A45",
"e. c #775D4A",
"r. c #5A605A",
"t. c #6C6043",
"y. c #75614A",
"u. c #7D634C",
"i. c #716841",
"p. c #64645E",
"a. c #7C6A51",
"s. c #786654",
"d. c #5A5A64",
"f. c #5B6775",
"g. c #5B666B",
"h. c #646464",
"j. c #6C6C6C",
"k. c #636C69",
"l. c #72736C",
"z. c #687177",
"x. c #7F7F7F",
"c. c #767773",
"v. c #676C72",
"b. c #806F4C",
"n. c #846C55",
"m. c #846A57",
"M. c #8B745D",
"N. c #867358",
"B. c #927759",
"V. c #8D7A61",
"C. c #8F7661",
"Z. c #917561",
"A. c #957964",
"S. c #978169",
"D. c #A9957F",
"F. c #262D8B",
"G. c #242B88",
"H. c #353C9D",
"J. c #32388B",
"K. c #3E438D",
"L. c #39409D",
"P. c #474C99",
"I. c #616384",
"U. c #3D46CC",
"Y. c #3F48CC",
"T. c #3F49D3",
"R. c #3C45D6",
"E. c #414AD4",
"W. c #444DDC",
"Q. c #434DE8",
"!. c #4550ED",
"~. c #4852EC",
"^. c #555EE2",
"/. c #4752F3",
"(. c #5862F1",
"). c #5861E5",
"_. c #666FF3",
"`. c #778087",
"'. c #7C8A90",
"]. c #848484",
"[. c #898989",
"{. c #888C86",
"}. c #8E9189",
"|. c #95938B",
" X c #929292",
".X c #9D9D9C",
"XX c #868D98",
"oX c #A39D96",
"OX c #A1A39C",
"+X c #9099A4",
"@X c #A4A4A4",
"#X c #ABABAA",
"$X c #A7A8A0",
"%X c #B2B1AC",
"&X c #B0BAAF",
"*X c #B4B4B3",
"=X c #B7BAB5",
"-X c #BCBDBA",
";X c #B9B9B3",
":X c #C2C2BE",
">X c #CBCCCB",
",X c #C9C9C4",
"<X c #D4D0CA",
"1X c #DDDDDB",
"2X c #D6D8D6",
"3X c #E2E4E5",
"4X c #EAEAEA",
"5X c #F3F4F3",
"6X c white",
/* pixels */
"6X6X6X6X6X6X6X6X6X6X6X6X6X6X6X6X6X6X6X6X6X6X6X6X6X6X6X6X6X6X6X6X6X6X6X6X6X6X6X6X6X6X6X6X6X6X6X6X6X6X6X6X6X6X6X6X6X6X6X6X6X6X6X6X",
"6X6X6X6X6X6X6X6X6X6X6X6X6X6X6X6X6X6X6X6X6X6X6X6X6X6X6X6X6X6X6X6X6X6X6X6X6X6X6X6X6X6X6X6X6X6X6X6X6X6X6X6X6X6X6X6X6X6X6X6X6X6X6X6X",
"6X6X6X6X6X6X6X6X6X6X6X6X6X6X6X6X6X6X6X6X6X6X6X6X6X6X6X6X6X6X6X6X6X6X6X6X6X6X6X6X6X6X6X6X6X6X6X6X6X6X6X6X6X6X6X6X6X6X6X6X6X6X6X6X",
"6X6X6X6X6X6X6X6X6X6X6X6X6X6X6X6X6X6X6X6X6X6X6X6X6X6X>X$XOXc.}.6X6X6X6X6X6X6X6X6X6X6X6X6X6X6X6X6X6X6X6X6X6X6X6X6X6X6X6X6X6X6X6X6X",
"6X6X6X6X6X6X6X6X6X6X6X6X6X6X6X6X6X6X6X6X6X6X6X6X5X{.2 v b w < q X   B .X5X6X6X6X6X6X6X6X6X6X6X6X6X6X6X6X6X6X6X6X6X6X6X6X6X6X6X6X",
"6X6X6X6X6X6X6X6X6X6X6X6X6X6X6X6X6X6X6X6X6X6X6X;X  X o q - w b @ Z i o B 2 5X6X6X6X6X6X6X6X6X6X6X6X6X6X6X6X6X6X6X6X6X6X6X6X6X6X6X",
"6X6X6X6X6X6X6X6X6X6X6X6X6X6X6X6X6X6X6X6X6X6Xc.  X o - @ < c b 3 b A v i m 7 6X6X6X6X6X6X6X6X6X6X6X6X6X6X6X6X6X6X6X6X6X6X6X6X6X6X",
"6X6X6X6X6X6X6X6X6X6X6X6X6X6X6X6X6X6X6X6X6X:X  X . o   o 3 3 3 c i 1 v q q X - 6X6X6X6X6X6X6X6X6X6X6X6X6X6X6X6X6X6X6X6X6X6X6X6X6X",
"6X6X6X6X6X6X6X6X6X6X6X6X6X6X6X6X6X6X6X6X6X=     X O   < < - < q 1 @ X 2 : o   3.6X6X6X6X6X6X6X6X6X6X6X6X6X6X6X6X6X6X6X6X6X6X6X6X",
"6X6X6X6X6X6X6X6X6X6X6X6X6X6X6X6X6X6X6X6X6X    O O O X $ $ $ - = X X   X o X X   4X6X6X6X6X6X6X6X6X6X6X6X6X6X6X6X6X6X6X6X6X6X6X6X",
"6X6X6X6X6X6X6X6X6X6X6X6X6X6X6X6X6X6X6X6X1X    O O     o X     X . O . X X X X   S.6X6X6X6X6X6X6X6X6X6X6X6X6X6X6X6X6X6X6X6X6X6X6X",
"6X6X6X6X6X6X6X6X6X6X6X6X6X6X6X6X6X6X6X6X}.    X   O X = o   O X o     O X X X   , 6X6X6X6X6X6X6X6X6X6X6X6X6X6X6X6X6X6X6X6X6X6X6X",
"6X6X6X6X6X6X6X6X6X6X6X6X6X6X6X6X6X6X6X6Xc.    O O   o 8 ; X O   o =   . X X X o   6X6X6X6X6X6X6X6X6X6X6X6X6X6X6X6X6X6X6X6X6X6X6X",
"6X6X6X6X6X6X6X6X6X6X6X6X6X6X6X6X6X6X6X6Xl.    X     7 ; -         % O     o - ;   6X6X6X6X6X6X6X6X6X6X6X6X6X6X6X6X6X6X6X6X6X6X6X",
"6X6X6X6X6X6X6X6X6X6X6X6X6X6X6X6X6X6X6X6Xp.  .     5 ! T H = 3 T s p s p .   X - >.6X6X6X6X6X6X6X6X6X6X6X6X6X6X6X6X6X6X6X6X6X6X6X",
"6X6X6X6X6X6X6X6X6X6X6X6X6X6X6X6X6X6X6X6X|.  o . m a 7   - p T [ T s # i s r : X l.6X6X6X6X6X6X6X6X6X6X6X6X6X6X6X6X6X6X6X6X6X6X6X",
"6X6X6X6X6X6X6X6X6X6X6X6X6X6X6X6X6X6X6X6X3X5 o 8.q.#.! J 9 p W #.{ 6 d ] E &.9.5 6X6X6X6X6X6X6X6X6X6X6X6X6X6X6X6X6X6X6X6X6X6X6X6X",
"6X6X6X6X6X6X6X6X6X6X6X6X6X6X6X6X6X6X6X6X6X4 r a.w.n.w.O.O.{ #.A.n.#.+.#.B.B.y.= 6X6X6X6X6X6X6X6X6X6X6X6X6X6X6X6X6X6X6X6X6X6X6X6X",
"6X6X6X6X6X6X6X6X6X6X6X6X6X6X6X6X6X6X6X6X6X,.6 s.q.u.u.u.q.+.e.D.M.a.M.M.C.A.y.|.6X6X6X6X6X6X6X6X6X6X6X6X6X6X6X6X6X6X6X6X6X6X6X6X",
"6X6X6X6X6X6X6X6X6X6X6X6X6X6X6X6X6X6X6X6X6X<.8.s.0.w.u.u.#.#.b.Z.S.i.n.Z.C.N.&.<X6X6X6X6X6X6X6X6X6X6X6X6X6X6X6X6X6X6X6X6X6X6X6X6X",
"6X6X6X6X6X6X6X6X6X6X6X6X6X6X6X6X6X6X6X6X6X>.d s.0.%.q.w.u.U 4 E G b.b.m.s.a.0.6X6X6X6X6X6X6X6X6X6X6X6X6X6X6X6X6X6X6X6X6X6X6X6X6X",
"6X6X6X6X6X6X6X6X6X6X6X6X6X6X6X6X6X6X6X6X6X4X   .e.8.@.w.u.o.! E o.A.M.q.0.N.= 6X6X6X6X6X6X6X6X6X6X6X6X6X6X6X6X6X6X6X6X6X6X6X6X6X",
"6X6X6X6X6X6X6X6X6X6X6X6X6X6X6X6X6X6X6X6X6X6XC 7 y.%.#.&.$...! o.u.V.M.y.t.N.v 6X6X6X6X6X6X6X6X6X6X6X6X6X6X6X6X6X6X6X6X6X6X6X6X6X",
"6X6X6X6X6X6X6X6X6X6X6X6X6X6X6X6X6X6X6X6X6X6X1X  m.@.O.! 6 6 F ~ F 6 [ e.i.} -X6X6X6X6X6X6X6X6X6X6X6X6X6X6X6X6X6X6X6X6X6X6X6X6X6X",
"6X6X6X6X6X6X6X6X6X6X6X6X6X6X6X6X6X6X6X6X6X6X6Xv B 0...X.O.E J / ^ +.] $.N.  -X6X6X6X6X6X6X6X6X6X6X6X6X6X6X6X6X6X6X6X6X6X6X6X6X6X",
"6X6X6X6X6X6X6X6X6X6X6X6X6X6X6X6X6X6X6X6X6X6X6X.Xo &.O.....Q G 6 L q.%.9.}   6X6X6X6X6X6X6X6X6X6X6X6X6X6X6X6X6X6X6X6X6X6X6X6X6X6X",
"6X6X6X6X6X6X6X6X6X6X6X6X6X6X6X6X6X6X6X6X6X6X6X-Xo ..' ..&.%.@.O.u.9.$.t.  A 6X6X6X6X6X6X6X6X6X6X6X6X6X6X6X6X6X6X6X6X6X6X6X6X6X6X",
"6X6X6X6X6X6X6X6X6X6X6X6X6X6X6X6X6X6X6X6X6X6X6X2XX [ K a K P P Y T T T &.  3.6X6X6X6X6X6X6X6X6X6X6X6X6X6X6X6X6X6X6X6X6X6X6X6X6X6X",
"6X6X6X6X6X6X6X6X6X6X6X6X6X6X6X6X6X6X6X6X6X6X6X3.o X.L K a u u y u f _ +.$ l.6X6X6X6X6X6X6X6X6X6X6X6X6X6X6X6X6X6X6X6X6X6X6X6X6X6X",
"6X6X6X6X6X6X6X6X6X6X6X6X6X6X6X6X6X6X6X6X6X6X3X;.X ] W T K J K f P I ` ] I.-X6X6X6X6X6X6X6X6X6X6X6X6X6X6X6X6X6X6X6X6X6X6X6X6X6X6X",
"6X6X6X6X6X6X6X6X6X6X6X6X6X6X6X6X6X6X6X6X6X>.v.z.>.a ] T L K K L P ` I p.+X4.OX6X6X6X6X6X6X6X6X6X6X6X6X6X6X6X6X6X6X6X6X6X6X6X6X6X",
"6X6X6X6X6X6X6X6X6X6X6X6X6X6X6X6X6X6X6X6XM   x v.f.d.B I P P P T P a 3.'.XX& X 2X6X6X6X6X6X6X6X6X6X6X6X6X6X6X6X6X6X6X6X6X6X6X6X6X",
"6X6X6X6X6X6X6X6X6X6X6X6X6X6X6X6X6X6X1X    O     C 4.f.4.B a s y m v.g.;.  + , X {.6X6X6X6X6X6X6X6X6X6X6X6X6X6X6X6X6X6X6X6X6X6X6X",
"6X6X6X6X6X6X6X6X6X6X6X6X6X6X6X6X6Xl.    X   O       . , b 7 o < c       O @ , , & N =X6X6X6X6X6X6X6X6X6X6X6X6X6X6X6X6X6X6X6X6X6X",
"6X6X6X6X6X6X6X6X6X6X6X6X6X6X6X6X    X                                   X * * * 0 0 0 e r.,X6X6X6X6X6X6X6X6X6X6X6X6X6X6X6X6X6X6X",
"6X6X6X6X6X6X6X6X6X6X6X6X6X6X6X].  n n b S b b b b b b c b b n n n b v v n M n >.) ( ( ;.b   6X6X6X6X6X6X6X6X6X6X6X6X6X6X6X6X6X6X",
"6X6X6X6X6X6X6X6X6X6X6X6X6X6X6X  x.[.[.[.{.].[.[.[.XX}.[.XX[.[.'.[.[.[.[.{.'.[.].].[.].}. XZ   @X6X6X6X6X6X6X6X6X6X6X6X6X6X6X6X6X",
"6X6X6X6X6X6X6X6X6X6X6X6X6X6X<.Z [.x.x.x.x.x.x.x.I.S.S.`.S.{.`.S.x.x.x.x.`.S.{.I.x.x.S.I.I.[.l.  [.6X6X6X6X6X6X6X6X6X6X6X6X6X6X6X",
"6X6X6X6X6X6X6X6X6X6X6X6X6X>X  x.].x.x.x.`.x.`.`.].{.`.`.].I.x.x.x.x.x.x.x.x.S.`.x.x.x.].|.|.].].  [.6X6X6X6X6X6X6X6X6X6X6X6X6X6X",
"6X6X6X6X6X6X6X6X6X6X6X6X6X@ c .Xx.x.x.x.`.S.`.S.`.I.S.`.`.V.`.x.x.x.x.x.x.x.].`.x.x.x.].     X X@   4X6X6X6X6X6X6X6X6X6X6X6X6X6X",
"6X6X6X6X6X6X6X6X6X6X6X6X2X  < c  X].].[.].x.x.x.`.S.`.V.`.`.x.x.x.x.x.x.`.`.I.`.`.`..X  5X].    ].j.A 6X6X6X6X6X6X6X6X6X6X6X6X6X",
"6X6X6X6X6X6X6X6X6X6X6X6X:.j.6X  w @ < O h.].x.x.`.`.`.`.I.].x.x.x.x.x.x.S.`.S.{.S.'.5.X 6X6X X  6X5X  6X6X6X6X6X6X6X6X6X6X6X6X6X",
"6X6X6X6X6X6X6X6X6X6X6X6X  6X5X  x.*X%X#X   Xx.x.x.S.].`.S.].`.`.x.x.x.x.`.`.{.I.x.].<.:.6X6X6X  h.>X  6X6X6X6X6X6X6X6X6X6X6X6X6X",
"6X6X6X6X6X6X6X6X6X6X6X@X  6X#Xc 6X6X6X6Xb <.].x.x.x.x.{.{.`.S.`.`.x.x.x.S.].`.S.x.].<.S 6X6X6X6XS Z :.6X6X6X6X6X6X6X6X6X6X6X6X6X",
"6X6X6X6X6X6X6X6X6X6X6XZ 5.6X#Xb 6X6X6X6X:.<.].I.S.`.`.I.`.S.`.S.S.`.x.x.x.x.`.`.x.].<.;.6X6X6X6X6X6X6X6X6X6X6X6X6X6X6X6X6X6X6X6X",
"6X6X6X6X6X6X6X6X6X6X6X.X  7.  @X6X6X6X6X:.<.}.S.x.x.`.S.`.`.`.].x.`.x.x.V.`.`.S.I.].<.:.6X6X6X6X6X6X6X6X6X6X6X6X6X6X6X6X6X6X6X6X",
"6X6X6X6X6X6X6X6X6X6X6X6X5XS x.6X6X6X6X6X< 4.[.`.x.x.S.I.`.V.I.{.x.x.x.x.`.{.S.`.{.[.<.Z 6X6X6X6X6X6X6X6X6X6X6X6X6X6X6X6X6X6X6X6X",
"6X6X6X6X6X6X6X6X6X6X6X6X6X6X6X6X6X6X6X6X  XXS.`.].`.{.].`.`.`.S.x.x.x.x.].I.`.].S.`.@X  6X6X6X6X6X6X6X6X6X6X6X6X6X6X6X6X6X6X6X6X",
"6X6X6X6X6X6X6X6X6X6X6X6X6X6X6X6X6X6X6Xx.c  X{.].[.].[.[.S.'.`.].].].].].].].].].].]. X  >X6X6X6X6X6X6X6X6X6X6X6X6X6X6X6X6X6X6X6X",
"6X6X6X6X6X6X6X6X6X6X6X6X6X6X6X6X6X6X6XS i 2 i 7 2 i 2 ; 3.5.7.7.3.5.5.7.5.5.5.5.5.3.6.< 6.6X6X6X6X6X6X6X6X6X6X6X6X6X6X6X6X6X6X6X",
"6X6X6X6X6X6X6X6X6X6X6X6X6X6X6X6X6X6X6X  J.F.F.F.F.F.F.P.z k j j k k j j j j k k j j l   < 6X6X6X6X6X6X6X6X6X6X6X6X6X6X6X6X6X6X6X",
"6X6X6X6X6X6X6X6X6X6X6X6X6X6X6X6X6X6X,X= !.E.E.E.E.E.E.T.E.W.W.W.W.W.W.W.W.W.W.W.W.W.Q.(.  5X6X6X6X6X6X6X6X6X6X6X6X6X6X6X6X6X6X6X",
"6X6X6X6X6X6X6X6X6X6X6X6X6X6X6X6X6X6Xp.z W.Y.Y.Y.Y.Y.Y.Y.Y.Y.E.Y.E.E.E.Y.Y.Y.Y.Y.E.E.U.E.V 5.6X6X6X6X6X6X6X6X6X6X6X6X6X6X6X6X6X6X",
"6X6X6X6X6X6X6X6X6X6X6X6X6X6X6X6X6X6X  H.T.Y.Y.T.W.W.W.W.W.W.W.W.W.W.E.E.W.E.E.E.U.E.U.E.H.o 6X6X6X6X6X6X6X6X6X6X6X6X6X6X6X6X6X6X",
"6X6X6X6X6X6X6X6X6X6X6X6X6X6X6X6X6X6X  ~.Y.U.^.K.h g g g g g g g g g g g g =.G.F.^.E.E.U._.  6X6X6X6X6X6X6X6X6X6X6X6X6X6X6X6X6X6X",
"6X6X6X6X6X6X6X6X6X6X6X6X6X6X6X6X6X#X  !.W.!.v   x.;X%X%X%X%X%X%X%X%X%X%X;X,. .#   f.W.E./.  >X6X6X6X6X6X6X6X6X6X6X6X6X6X6X6X6X6X",
"6X6X6X6X6X6X6X6X6X6X6X6X6X6X6X6X6X%X> -.g k   6X6X6X6X6X6X6X6X6X6X6X6X6X6X6X6X6X4X  z g h   7.6X6X6X6X6X6X6X6X6X6X6X6X6X6X6X6X6X",
"6X6X6X6X6X6X6X6X6X6X6X6X6X6X6X6X6X%X   .OX,X  6X6X6X6X6X6X6X6X6X6X6X6X6X6X6X6X6X6XZ A -X=X].Z 6X6X6X6X6X6X6X6X6X6X6X6X6X6X6X6X6X",
"6X6X6X6X6X6X6X6X6X6X6X6X6X6X6X6X6X=X  6X6X6X  6X6X6X6X6X6X6X6X6X6X6X6X6X6X6X6X6X6X.XO 6X6X@ j.6X6X6X6X6X6X6X6X6X6X6X6X6X6X6X6X6X",
"6X6X6X6X6X6X6X6X6X6X6X6X6X6X6X6X6X6XX h.6X*X  6X6X6X6X6X6X6X6X6X6X6X6X6X6X6X6X6X6X6X  O   O 6X6X6X6X6X6X6X6X6X6X6X6X6X6X6X6X6X6X",
"6X6X6X6X6X6X6X6X6X6X6X6X6X6X6X6X6X6X5X      {.6X6X6X6X6X6X6X6X6X6X6X6X6X6X6X6X6X6X6X6XOX3X6X6X6X6X6X6X6X6X6X6X6X6X6X6X6X6X6X6X6X",
"6X6X6X6X6X6X6X6X6X6X6X6X6X6X6X6X6X6X6X6X6X6X6X6X6X6X6X6X6X6X6X6X6X6X6X6X6X6X6X6X6X6X6X6X6X6X6X6X6X6X6X6X6X6X6X6X6X6X6X6X6X6X6X6X",
"6X6X6X6X6X6X6X6X6X6X6X6X6X6X6X6X6X6X6X6X6X6X6X6X6X6X6X6X6X6X6X6X6X6X6X6X6X6X6X6X6X6X6X6X6X6X6X6X6X6X6X6X6X6X6X6X6X6X6X6X6X6X6X6X",
"6X6X6X6X6X6X6X6X6X6X6X6X6X6X6X6X6X6X6X6X6X6X6X6X6X6X6X6X6X6X6X6X6X6X6X6X6X6X6X6X6X6X6X6X6X6X6X6X6X6X6X6X6X6X6X6X6X6X6X6X6X6X6X6X"
};
