/* XPM */
static char *result[] = {
/* columns rows colors chars-per-pixel */
"64 64 224 2 ",
"   c #010000",
".  c #0C0303",
"X  c #0C0909",
"o  c #140C0B",
"O  c #1B0C0C",
"+  c #150505",
"@  c #1B110E",
"#  c #17100B",
"$  c #1C1312",
"%  c #1C1917",
"&  c #230C0D",
"*  c #280F0F",
"=  c #390C0E",
"-  c #35090B",
";  c #22130D",
":  c #231413",
">  c #2C1111",
",  c #2B1B14",
"<  c #261B18",
"1  c #3D1213",
"2  c #371716",
"3  c #39170F",
"4  c #28211D",
"5  c #34261A",
"6  c #2B1D21",
"7  c #2E2725",
"8  c #322423",
"9  c #372A27",
"0  c #39312C",
"q  c #3D3432",
"w  c #3E2A31",
"e  c #411516",
"r  c #411718",
"t  c #441A1B",
"y  c #4A1C1E",
"u  c #551E1D",
"i  c #48231E",
"p  c #57201F",
"a  c #4D1F21",
"s  c #511E21",
"d  c #4C2122",
"f  c #442A25",
"g  c #532324",
"h  c #5C2625",
"j  c #5C2827",
"k  c #56292A",
"l  c #5B2A2B",
"z  c #592628",
"x  c #483529",
"c  c #442D34",
"v  c #413633",
"b  c #453A34",
"n  c #4B3C35",
"m  c #4A393A",
"M  c #563737",
"N  c #573726",
"B  c #622625",
"V  c #622827",
"C  c #642A29",
"Z  c #6C2C2B",
"A  c #672626",
"S  c #732E2E",
"D  c #792F2F",
"F  c #73302F",
"G  c #612F32",
"H  c #732F30",
"J  c #753031",
"K  c #7B3131",
"L  c #643B34",
"P  c #49423B",
"I  c #5C4334",
"U  c #58473A",
"Y  c #684B3B",
"T  c #593C44",
"R  c #554943",
"E  c #5A4B43",
"W  c #5A4B4B",
"Q  c #5A504C",
"!  c #6B4A4A",
"~  c #65484A",
"^  c #675449",
"/  c #775849",
"(  c #6A4650",
")  c #744C58",
"_  c #685956",
"`  c #765354",
"'  c #795559",
"]  c #7C5759",
"[  c #724C49",
"{  c #786557",
"}  c #736256",
"|  c #776A62",
" . c #7E7468",
".. c #756E71",
"X. c #7D5562",
"o. c #832E2D",
"O. c #853534",
"+. c #893435",
"@. c #883738",
"#. c #885A5A",
"$. c #955D5A",
"%. c #8A524F",
"&. c #85685A",
"*. c #8C6E5A",
"=. c #865A67",
"-. c #877565",
";. c #967666",
":. c #9B6878",
">. c #857A77",
",. c #90696F",
"<. c #A26262",
"1. c #A5776F",
"2. c #B75854",
"3. c #C75857",
"4. c #0DA93B",
"5. c #15AC41",
"6. c #1BAE46",
"7. c #1EAF49",
"8. c #1FB04A",
"9. c #24B14D",
"0. c #2BB453",
"q. c #36B85C",
"w. c #3DBA61",
"e. c #46BE69",
"r. c #4EC070",
"t. c #5DC57B",
"y. c #53C274",
"u. c #4DC06F",
"i. c #61C77F",
"p. c #8B8378",
"a. c #96877A",
"s. c #A88775",
"d. c #B48F76",
"f. c #B7937B",
"g. c #AC866F",
"h. c #C1967C",
"j. c #AE7485",
"k. c #B37486",
"l. c #69CA85",
"z. c #72CD8D",
"x. c #7BD095",
"c. c #78CF92",
"v. c #9E9589",
"b. c #978D86",
"n. c #A4968A",
"m. c #BF9985",
"M. c #AB9D93",
"N. c #A38E86",
"B. c #ACA196",
"V. c #B3A69B",
"C. c #BDA086",
"Z. c #BAAEA5",
"A. c #B0ACA5",
"S. c #BE97A0",
"D. c #C29C84",
"F. c #C39A88",
"G. c #C68599",
"H. c #C6A28B",
"J. c #CAA68D",
"K. c #CDA795",
"L. c #D5AB98",
"P. c #D7B39A",
"I. c #D2A18F",
"U. c #D78EA4",
"Y. c #DD94AA",
"T. c #DB94A9",
"R. c #E196AD",
"E. c #E398AF",
"W. c #E69AB1",
"Q. c #EC9DB5",
"!. c #EB9FB8",
"~. c #F19FB7",
"^. c #C4B6AA",
"/. c #DCB8A6",
"(. c #CDB6B1",
"). c #E5BCAA",
"_. c #E3BAA6",
"`. c #EEA1B9",
"'. c #EAA5B7",
"]. c #F3A3BC",
"[. c #FAA6BF",
"{. c #F3A0B7",
"}. c #E8B7B5",
"|. c #E2ABAF",
" X c #E1AB9A",
".X c #85D49C",
"XX c #8BD6A1",
"oX c #99DBAC",
"OX c #A2DEB4",
"+X c #A8DFB8",
"@X c #A9E1BA",
"#X c #D3C6BA",
"$X c #D1C3B0",
"%X c #E7C3AC",
"&X c #ECCCBA",
"*X c #E9C6B6",
"=X c #F7D4BA",
"-X c #F6A6C1",
";X c #FAA7C1",
":X c #FCABC5",
">X c #FFAEC9",
",X c #F7A8C2",
"<X c #FFB2CD",
"1X c #FBB9C5",
"2X c #FFB6D2",
"3X c #FFBAD6",
"4X c #FFBDDA",
"5X c #B7E5C5",
"6X c #DCD5C8",
"7X c #D9CEC3",
"8X c #E4DACB",
"9X c #F5D7C6",
"0X c #FFC0DF",
"qX c #ECD8CC",
"wX c #C2E9CE",
"eX c #CBECD5",
"rX c #D1EED9",
"tX c #F3EAD8",
"yX c #DBF2E2",
"uX c #E7F6EB",
"iX c #FFFFFF",
"pX c #F5FBF7",
"aX c #F5F5E8",
"sX c #FFC5E2",
/* pixels */
"= = = 1 e e r r r r r t 1 t r - = t r r r r r r r r r t t t t r r t y t t a 5 e = e s y ) iXiXiXiXiXiXiXiXiXiXiXiXiXiXiXiXiXiXiX",
"= 1 e r t 2 r e r r 1 r r t t 1 1 t r r r r r t t 1 > 3 > * r y t t a 2 a t a a = e g y ` iXiXiXiXiXiXiXiXiXiXiXiXiXiXiXiXiXiXiX",
"r r r e r r r r 1 r r r r r t t t t e e r r r .             o : t a y a a a t a t e s t ` iXiXiXiXiXiXiXiXiXpXpX5Xz.e.iXiXiXiXiX",
"e r e r r r r r r r r r 1 2 t y t y r 3 y 3       .       . .     > a t 2 t t a a g g y ` iXiXiXiXOXx.l.y.q.9.6.9.q.t.iXiXiXiXiX",
"r r r r 1 1 1 1 1 1 1 1 t d 1 1 1 - 1 [ O X o : X $ 4     X         > a a a a t k G k k ] iXiXiXt.7.w.e.i.x.+X5XyXiXiXiXiXiXiXiX",
"1 1 = 1 1 1 = 3 1 1 1 1 d d = - t C.tXP @ $ # # # % X X               2 a 2 a k k l k d #.iXiXiX0.oXiXiXiXiXiXiXiXiXiXiXiXiXiXiX",
"1 1 1 1 1 1 1 1 3 1 t a d d - { $XaXQ o @ # # # < 7 0 P 7 % %         . a d k k k k k g ] iXiXpX9.@XiXiXiXiXiXiXiXiXiXiXiXiXiXiX",
"1 1 1 = 1 1 1 1 t t t d t M 8X8X#XV.X $ # o o o o < P 0 7 R ..%       . : k d k G k l d ` iXiXyX5.eXiXiXpXpXwX@Xx.iXiXiXiXiXiXiX",
"1 1 1 1 1 1 r t t 1 d 1 M 8X6X#X$X4 % # X X o + : v P q 9 0 P 4 o X o     l k l l G d a ` iXiXrX6.@X.Xl.6.9.4.6.t.iXiXiXiXiXiXiX",
"1 1 1 1 1 r r t 1 a 1 ~ aXV.b.p.p.# % # X # o @ , 0 W U ^ ^ q % < < X     2 l k l d a a ' iXiXeX9.c.9.e.OX5XuXiXiXiXiXiXiXiXiXiX",
"1 1 1 1 r t t r a a d aX#X(.^.Z.0 5 % # # # # , , n { a.J.J.s./ 5 7 < @   O G k s d s a ' iXiX+X5.uXiXiXiXiXiXiXwXiXiXiXiXiXiXiX",
"1 1 1 t t t t 2 d = 7X6X#XV.B.N.% 7 # # + # O i I %.d.P./.*XK.m.-.7 0 <     l a k g s a ' iXiX5X5.pXiXiXiXuXXX7.5.iXiXiXiXiXiXiX",
"1 r t t r t r d r | uX7X^.B.M. .; 5 % @ # 4 M / g.m.K./.*XqX&XH.d.I P 4 o   s g d d s a ' iXiXOX7.iXiX5Xl.4.9.x.pXiXiXiXiXiXiXiX",
"r t t r t r y d - tX8X#XZ.n.M.U @ 5 % @ ; i &.F.C.P./.#X*X9X&XJ.f.I Q 9 0 q L s g k k a ' iXiXoX0.rXl.4.w.@XiXiXiXiXiXiXiXiXiXiX",
"t t t t r r d t ` aX8X#XV.b.v.P ; , ; 5 Y ;.*./ N././.9X7X9X&XJ.f.U R 9 0 _ a.- a k s a ' iXiX5X6.5.q.eXiXiXiXiXiXiXiXiXiXiXiXiX",
"t r t r r d d 1 Z.tX6X#XB.a.v.5 5 @ i %.I *.m._.&.s./.*X&X9X&XJ.d.N m 7 q _ ^.e 1 t k a ' iXiXiXrX5XiXiXiXiXiXiXiXiXiXiXiXiXiXiX",
"r t t t a d d - tX8X6X^.B.p.a.9 , ; Y ;.%.[ 0 ;.P.d.K.}.)./.L.m.m.< T 0 W _ (.] 1 2 1 y ] iXiXiXiXiXiXiXiXiXiXiXiX5XiXiXiXiXiXiX",
"r t r t d d y k aXrX7X(.M.p.p., # x *.h.h.d.&.p.g.H.K.).L.m.1.^ { o T w W _ n.,.1 1 1 = [ iXiXiXiXiXuXiXiXiXiXyX9.w.iXiXiXiXiXiX",
"t t 2 d d d t [ aX6X7X(.v.p. ., I Y g.L./.L.L.K.H.D.%X_.F.m.K.H./ o q q W _ n.M.e e 1 = ~ iXiXiXiXXXq.uXiXiXrX9.e.yXiXiXiXiXiXiX",
"t 1 d d d d a ! A.B.v.p.| Q Q x / / h.L._.}.%X%XL.K.=XL.;.0 >.M O O w q Q _ N.>.e y 1 - ! iXiXiXiXpX7.l.iXwX7.e.iXiXiXiXiXiXiXiX",
"2 y d d d d a ] qX(.(.B.p. .} J.Y ;.F.I.).}.&X_.I.}.9X_.F.L.1.I . : v v W _ _ ..e d t - ~ iXiXiXiXiXwX6.c.5.t.iXiXiXiXiXiXiXiXiX",
"t d d d d d a ` 7XL.S.v.p.-.P.J.O 1.F.I.L.).&XF.F.9X*X%X).L.h.f . , b m _ ( _ W e y d - ~ iXiXiXiXiXiXe.5.z.iXiXiXiXiXiXiXiXiXiX",
"a d d d g g d M v.y.} ^ { %X9XY   Y d.F. X|.F.d.F.tX).%X*XL.1.+ O 9 m v W W _ m y d y r ~ iXiXiXiXiX5X9.4.@XiXiXiXiXiXiXiXiXiXiX",
"d d d d s i y y E 5 U s.%Xm./ { f.%X_.K.L.).F.d.I.9X_.).}.I.f . 5 m w v W R R U t y y y ! iXiXiXiXuX5.l.z.q.uXiXiXiXiXiXiXiXiXiX",
"t r r r 1 r r e U s.H.H.H.P.&X=X=Xs.&.D.J.P.P.P.K./.)._._./   O 5 m q n W ^ R k y a d y ` iXiXiXuX9.y.iXiX7.x.iXiXiXiXiXiXiXiXiX",
"r r r r r r t + 9 P.J.%X=X&XJ.-.U O O d.f.$.2.J.%X/.%X_.*.  . $ 9 m n n _ ^ R t a g a t ` iXiXuX0.e.uXiXiXOX5.rXiXiXiXiXiXiXiXiX",
"r t t t t t y   ` P.P.%X%X%Xs./ x 4 @ Y J.h.2.3.3.h.H.n . . . < b M 9 E _ W c a d a s e ) iXiXeX4.pXiXiXiXiX0.r.iXiXiXiXiXiXiXiX",
"r r r t t t 1   Q.|.P.%X=X9XtX=X/ ; E x d.%X%X%XC.^ . ; + . + , n n 4 U ^ Q g y y s s y ` iXiXiXiXiXiXiXiXiXuX5.l.iXiXiXiXiXiXiX",
"t t t t t t & $ 2X].}./.f.H.g.%X;.O { -.&.*.g.Y _ U , , . . $ O I P 5 P b M S Z g i y t ` iXiXiXiXiXiXiXiXiXiXoX5XiXiXiXiXiXiXiX",
"t r r t r t . T 2X>X`.1X%X=XP.h.*.; } ^.N N e _ | q 5 O X + < O 5 ^ Y n x A Z C Z Z B y ` iXiXiXiXiXiXiXiXiXiXiXiXiXiXiXiXiXiXiX",
"t t t t t t + T 2X>X].Q.|.-.%X=Xx ; U v.3 3 _ $X^.} 4 < $ < O , I ^ x b   H C Z C C A h #.iXiXiXiXiXiXiXiXiXiXiXiXiXiXiXiXiXiXiX",
"t r r t t t + M 2X:X>XT.'.  5 / # { q B.n R B.8X&X_ R 7 , < O 5 / | Y L   H C C C V B p #.iXiXiXiXiXiXiXiXiXiXiXiXiXiXiXiXiXiXiX",
"t r t r t r & X 4X>X2X<X].  5   # p.b.m Q b.Q Z.qX>.b 9 8 O ; ;  .a.%.%.  S Z B C V V p #.iXiXiXiXiXiXiXiXiXiXiXiXiXiXiXiXiXiXiX",
"t t t t t y >   U.2X=.=.S.X $ Y.5  .^.>.A...v.P ^.n.x 4 # . U n |.~.{.:X  H C C C V V p #.iXiXiXiXiX5Xe.l.9.t.iXiXiXiXiXiXiXiXiX",
"r t r t r t y   c X X c     =.4X:XE.#Xv.A.B.$XR a.p.< 4 ( Q.Y.W.Q.].:X'.  S C B V C A p ] iXiXiXiXiXrXr.0.y.OXiXiXiXiXiXiXiXiXiX",
"t r t t r t y >   w >X;X:X:.  ( :X3X:X-XK.(.1X:.}.G.:X4X3X>X:X;X{.[.<X:.  Z j C V B B s #.iXiXiXiXiXiXiX0.XXiXiXiXiXiXiXiXiXiXiX",
"r t r r t t t &   >X!.R.R.Q.U.$   M G.!.:X2X].=.    3X:X>X:X>X,X;X;X2Xm O Z V C j B B h ] iXiXiXiXiXiXiXe.l.iXiXiXiXiXiXiXiXiXiX",
"1 t r t t t y . ) `.-X:XR.Y.U.3XT.m           o j.2X>X:X:X!.].,X-X>X[.  s C V B B B l s #.iXiXiXiXiXiXiXz.q.iXiXiXiXiXiXiXiXiXiX",
"1 t r t t t t . ( ].W.`.Y.E.U.;X>X3X0X0X<X:X2X4X2X>X:X-X,X,X:X,X>X>X<   Z C V h j B h u ` iXiXiXiXiXiXiXl.t.iXiXiXiXiXiXiXiXiXiX",
"1 r t t t r y >   :X~.W.;X].!.R.-XE.!.`.].:X:X,X,X-X,X-X,X:X:X>X3XX   Z C V B V h j j u #.iXiXiXiXiXiXiX.X9.iXiXiXiXiXiXiXiXiXiX",
"1 1 y r y 2 y i   % >XQ.R.>X:X>X:X>X:X:X:X:X:X:X:X:X:X:X:X<X<X3X6   H C V h V j j j g B $.iXiXiXiXiXiXiX.Xw.iXiXiXiXiXiXiXiXiXiX",
"1 = 2 t t y y t G $ 8 ;XW.!.>X>X>X:X:X;X-X:X:X>X:X:X<X:X<X0XT.    Z C C B B h j j j A A #.iXiXiXiXiXiXiXXX9.iXiXiXiXiXiXiXiXiXiX",
"1 1 1 t t t t y 2 G   w -X~.>X2X2X>X>X>X:X:X>X>X<X2X4X0XU.w     H C C j B B j j z j S A $.iXiXiXiXiXiXiXOXw.iXiXiXiXiXiXiXiXiXiX",
"1 1 1 y t a t y y t y     6 T =.:.Y.T.!.>X<X2X3XG.X.$     T )   Z C B B h h j j g S S A #.iXiXiXiXiXiXpXt.4.oXiXiXiXiXiXiXiXiXiX",
"1 e 1 r a a t t a t a t   =.T 9 o                 9 ,.Y.0X3X) . Z V h B j j j g Z S S A #.iXiXiXiXiXiXpXw.e.XXiXiXiXiXiXiXiXiXiX",
"1 e 1 1 2 d 2 a t t a   T 4X<X2XsX  ,.2X-X].].].:X<X<X>X:X<X$ > Z h B j j z j C S S A A #.iXiXiXiXiXiXiXiXiXiXiXiXiXiXiXiXiXiXiX",
"1 1 1 1 2 a d t a a   $ 4X:X>X2X:.  3X:X].,X,X].:X:X:X:X<X{.  z V B C j z z h J Z A S B #.iXiXiXiXiXiXiXiXiXiXiXiXiXuXeXiXiXiXiX",
"1 1 e e 2 t t a a o   3X>X>X>X,X  j.<X:X:X].:X>X>X>X:X>X<Xw . Z h h j j j h H Z Z Z A B #.iXiXiXiXiXiXiXiXpXpXyX.Xy.6.4.iXiXiXiX",
"1 1 e e 1 y t y *   ].<X>X>X>X(   0X>X:X,X].].:X].].-X].f   Z Z h j j h p F F Z Z Z A A #.iXiXiXiXpX.Xl.q.6.0.7.0.i.OXuXiXiXiXiX",
"1 1 e e e r g O   Y.2X>X>X].>X  j.<X:X:X].W.!.Q.{.~.:.    g l H h j z g Z S Z Z Z A Z p ] iXiXiXiXiXq.q.x.5XOX0.oXiXiXiXiXiXiXiX",
"1 e e 1 e r .   !.2X>X<X,X~.G.  <X>X:X:X{.Q.~.G.<     & l C C Z h j z B F Z Z Z C B B A $.iXiXiXiXiXiXiXiXiXiX6.@XiXiXiXiXiXiXiX",
"1 e 1 e e     U.>X>X>X].R.:X' 6 >X:X:X:X!.].:.  O j Z C C C j j C g j H S Z V V F o.+.o.<.iXiXiXiXiXiXiXiXiXiX9.oXiXiXiXiXiXiXiX",
"e 1 e e   8 W.W.>X>X].Q.U.(   M >X:X,X:X~.:X  O H j j j C C j l C g F Z Z F O.+.O.@.O.o.<.iXiXiXiXiXiXiXiXiXiX0.OXiXiXiXiXiXiXiX",
"1 e r   6 Q.U.-X>X{.{.j.      ) ;X>X].:X>X{.8   l Z j B C k C j g F K O.O.O.O.O.O.O.O.o.<.iXiXiXiXiXiXiXiXiXiXq.l.iXiXiXiXiXiXiX",
"1 r   + !.U.Y.>X,XW.G.  * Z + T {.>X;X,X>X;XQ.c   . y Z z g p C Z @.O.O.O.O.O.+.O.O.O.o.<.iXiXiXiXiXiXiXiXiXiXu.l.iXiXiXiXiXiXiX",
"r *   U.T.Y.Q.;XQ.[.. > S Z y   ;X].>X;X:X>X<X>XY.W   + Z Z Z Z Z K O.O.o.O.O.O.O.O.O.o.<.iXiXiXiXiXiXiXiXiXiXt.r.iXiXiXiXiXiXiX",
"e   ) T.Y.Y.].R.Q.R.  C h B B   :.Q.,X:X:X:X:X`.~.~.R.. + S S A Z J O.O.O.O.O.O.O.+.O.o.<.iXiXiXiXiXiXiXiXiXiXx.e.iXiXiXiXiXiXiX",
"1   Y.R.R.Y.`.Y.W.G.  A h h h e   :.{.,X>X:X].:X~.~.R.W.  p S S J J O.O.O.O.O.O.O.+.O.o.<.iXiXiXiXiXiXiXiXiXiXz.q.iXiXiXiXiXiXiX",
"t   `.Y.Y.`.R.W.Q.:.  h p h j V 1   ) W.{.,X{.R.:X-XQ.~.(   D A H J J O.O.O.O.O.O.O.+.o.<.iXiXiXiXiXiXiXiXiXiXXXq.iXiXiXiXiXiXiX",
"t   Q.R.Q.].Y.W.Q.  O y y y g h h y     ) W.{.Q.~.~.Q.~.1.  K A J J J O.O.O.O.@.+.O.+.o.<.iXiXiXiXiXiXiXiXiXiX@X8.iXiXiXiXiXiXiX",
"a   ~ !.Q.Y.W.Y.  . s y y y t i B S S t     T =.j.j.:.k.+ . S Z J H Z O.O.O.O.@.@.O.+.o.<.iXiXiXiXiXiXiXiXiXiXoX5.iXiXiXiXiXiXiX",
"y 2   G.W.Y.Q.X . g y y y y y y y h A S K s +           . A S A J S H O.O.+.+.+.+.+.+.o.$.iXiXiXiXiXiXiXiXiXiXuXwXiXiXiXiXiXiXiX",
"y y &   ) =.    s y y y y y y g s s y y h Z D D D D S D S S Z Z J H S F +.O.+.+.@.+.@.A #.iXiXiXiXiXiXiXiXiXiXiXiXiXiXiXiXiXiXiX",
"y y a > . . * y y y y y y t y p h s s s s y y h Z Z Z Z S Z Z S J F S S +.O.+.+.+.@.Z A $.iXiXiXiXiXiXiXiXiXiXiXiXiXiXiXiXiXiXiX"
};
