/* XPM */
static char *result[] = {
/* columns rows colors chars-per-pixel */
"64 64 190 2 ",
"   c #010101",
".  c #090300",
"X  c #060900",
"o  c #0B0C03",
"O  c #0B0C0B",
"+  c #120D03",
"@  c #110B08",
"#  c #0D1006",
"$  c #0E1108",
"%  c #141205",
"&  c #1B1407",
"*  c #141309",
"=  c #1C140A",
"-  c #16180F",
";  c #1C190B",
":  c #151515",
">  c #1D1711",
",  c #1B1C13",
"<  c #1C1C1C",
"1  c #231B0E",
"2  c #2B1A0D",
"3  c #29140B",
"4  c #231D13",
"5  c #2B1D12",
"6  c #291611",
"7  c #361709",
"8  c #1E2016",
"9  c #1D211C",
"0  c #3A270E",
"q  c #262113",
"w  c #2C2214",
"e  c #24231C",
"r  c #292319",
"t  c #26281E",
"y  c #332419",
"u  c #352B1D",
"i  c #3B2C1C",
"p  c #372615",
"a  c #3D311C",
"s  c #242424",
"d  c #2B2D25",
"f  c #2C2C2C",
"g  c #262C22",
"h  c #322C22",
"j  c #392D23",
"k  c #2E3126",
"l  c #2F312A",
"z  c #3D3225",
"x  c #33332B",
"c  c #3F332A",
"v  c #343433",
"b  c #3B3C35",
"n  c #35343B",
"m  c #3C3C3C",
"M  c #3F3530",
"N  c #2C2B37",
"B  c #461D1B",
"V  c #422D1C",
"C  c #45251D",
"Z  c #45351E",
"A  c #4C2922",
"S  c #443223",
"D  c #4A3523",
"F  c #4B3B23",
"G  c #483028",
"H  c #443C2E",
"J  c #4E3C2A",
"K  c #463925",
"L  c #513425",
"P  c #523C26",
"I  c #583B26",
"U  c #533B2C",
"Y  c #593F28",
"T  c #413C33",
"R  c #5B3F31",
"E  c #673D29",
"W  c #534126",
"Q  c #55422A",
"!  c #5A442D",
"~  c #5D492F",
"^  c #42433B",
"/  c #534433",
"(  c #5B4433",
")  c #5C4932",
"_  c #5B4B3B",
"`  c #51483E",
"'  c #5E503E",
"]  c #60432E",
"[  c #634632",
"{  c #644A34",
"}  c #6A4C36",
"|  c #664E3B",
" . c #6A4D38",
".. c #66553A",
"X. c #6B533C",
"o. c #6F5333",
"O. c #71533E",
"+. c #3D3C46",
"@. c #423E5B",
"#. c #424242",
"$. c #4C4D43",
"%. c #4C4C4C",
"&. c #474941",
"*. c #534D41",
"=. c #5A4F4A",
"-. c #53544C",
";. c #5F5340",
":. c #4A4C58",
">. c #545454",
",. c #5D5D5D",
"<. c #5F5C52",
"1. c #6C5A42",
"2. c #63554C",
"3. c #655747",
"4. c #725641",
"5. c #725A43",
"6. c #7B5D4A",
"7. c #745949",
"8. c #6F624B",
"9. c #73624C",
"0. c #776956",
"q. c #7D745F",
"w. c #504D62",
"e. c #575466",
"r. c #5A5768",
"t. c #5F5D71",
"y. c #615C64",
"u. c #615E74",
"i. c #636363",
"p. c #686861",
"a. c #6C6C6C",
"s. c #73786E",
"d. c #666375",
"f. c #6D6A7C",
"g. c #727272",
"h. c #787877",
"j. c #7C7C7C",
"k. c #76757B",
"l. c #826A4E",
"z. c #826651",
"x. c #866C53",
"c. c #887258",
"v. c #93755E",
"b. c #8C6D60",
"n. c #957863",
"m. c #7F8274",
"M. c #828173",
"N. c #95847A",
"B. c #A08869",
"V. c #BA9D7B",
"C. c #757380",
"Z. c #807E90",
"A. c #848484",
"S. c #8C8C8C",
"D. c #888987",
"F. c #908E86",
"G. c #8F9084",
"H. c #969081",
"J. c #8E8D90",
"K. c #929292",
"L. c #9A9A95",
"P. c #9A9A9A",
"I. c #A7A59E",
"U. c #A4A4A4",
"Y. c #ABABAB",
"T. c #B3B3B4",
"R. c #BEBBB5",
"E. c #BBBBBB",
"W. c #B4B5B8",
"Q. c #D4B989",
"!. c #C1BCAF",
"~. c #CABBB1",
"^. c #BFBEC5",
"/. c #C3C3C3",
"(. c #C9C9C7",
"). c #CCCCCC",
"_. c #D1CBC4",
"`. c #D4D3CC",
"'. c #D9D3CF",
"]. c #D3D3D3",
"[. c #DCDCDC",
"{. c #DFE0DC",
"}. c #E4E4DE",
"|. c #DFE0E0",
" X c #E2E2E2",
".X c #EDEDEC",
"XX c #F0F2ED",
"oX c #F4F4F3",
"OX c #FFFFFF",
"+X c #FBFAF7",
/* pixels */
"OXOXOXOXOXOXOXOXOXOXOXOXOXOXOXOXOXOXOXOXOXOXOXOXOXOXOXOXOXOXOXOXXX}.XX XoXOXOXOXOXOXOXOXOXOXOXOXOXOXOXOXOXOXOXOXOXOXOXOXOXOXOXOX",
"OXOXOXOXOXOXOXOXOXOXOXOXOXOXOXOXOXOXOXOXOXOXOXOXOXOXOXOXOXL.^ -.,.>.f x m -.).OXOXOXOXOXOXOXOXOXOXOXOXOXOXOXOXOXOXOXOXOXOXOXOXOX",
"OXOXOXOXOXOXOXOXOXOXOXOXOXOXOXOXOXOXOXOXOXOXOXOXOXOXOX`.b k #.%.%.%.: < -.$.$.s.].OXOXOXOXOXOXOXOXOXOXOXOXOXOXOXOXOXOXOXOXOXOXOX",
"OXOXOXOXOXOXOXOXOXOXOXOXOXOXOXOXOXOXOXOXOXOXOXOXOXOX^ X x +.^ m x f O 9 b m ^ $.-.F.OXOXOXOXOXOXOXOXOXOXOXOXOXOXOXOXOXOXOXOXOXOX",
"OXOXOXOXOXOXOXOXOXOXOXOXOXOXOXOXOXOXOXOXOXOXOXOXOXx   , t l x , k h e > x b m b T *.M.OXOXOXOXOXOXOXOXOXOXOXOXOXOXOXOXOXOXOXOXOX",
"OXOXOXOXOXOXOXOXOXOXOXOXOXOXOXOXOXOXOXOXOXOXOXOXI.  X * * , # * d H F t e d n x x x =.G.OXOXOXOXOXOXOXOXOXOXOXOXOXOXOXOXOXOXOXOX",
"OXOXOXOXOXOXOXOXOXOXOXOXOXOXOXOXOXOXOXOXOXOXOXOXo o $ X # o X 8 t ~ F r 1 > t - , 8 H H }.OXOXOXOXOXOXOXOXOXOXOXOXOXOXOXOXOXOXOX",
"OXOXOXOXOXOXOXOXOXOXOXOXOXOXOXOXOXOXOXOXOXOXOX].  o $ X o X X - 4 ..J U * # * # X , & & G.OXOXOXOXOXOXOXOXOXOXOXOXOXOXOXOXOXOXOX",
"OXOXOXOXOXOXOXOXOXOXOXOXOXOXOXOXOXOXOXOXOXOXOX(.. o o o X X o # 2 O.! Z * # # % @ % o + <.OXOXOXOXOXOXOXOXOXOXOXOXOXOXOXOXOXOXOX",
"OXOXOXOXOXOXOXOXOXOXOXOXOXOXOXOXOXOXOXOXOXOXOX.X. o X X X @ o o 1 X.[ P 5 o X & ; @ o + 2.OXOXOXOXOXOXOXOXOXOXOXOXOXOXOXOXOXOXOX",
"OXOXOXOXOXOXOXOXOXOXOXOXOXOXOXOXOXOXOXOXOXOXOXOX&.  X X X 5 & 5 3  . .[ w + o X + o X o M.OXOXOXOXOXOXOXOXOXOXOXOXOXOXOXOXOXOXOX",
"OXOXOXOXOXOXOXOXOXOXOXOXOXOXOXOXOXOXOXOXOXOXOXOX>.  X X X X * = & D O.{ V & X X + > o . R.OXOXOXOXOXOXOXOXOXOXOXOXOXOXOXOXOXOXOX",
"OXOXOXOXOXOXOXOXOXOXOXOXOXOXOXOXOXOXOXOXOXOXOXOXk   - o = * & ; 5 K 1.( j 1 ; & 5 u # o OXOXOXOXOXOXOXOXOXOXOXOXOXOXOXOXOXOXOXOX",
"OXOXOXOXOXOXOXOXOXOXOXOXOXOXOXOXOXOXOXOXOXOXOX+X5 b $ q j u w r 4 i K V 4 4 r z z x 9 l OXOXOXOXOXOXOXOXOXOXOXOXOXOXOXOXOXOXOXOX",
"OXOXOXOXOXOXOXOXOXOXOXOXOXOXOXOXOXOXOXOXOXOXOX'.E , 9 ;.V q & u u X O X u w 1 V D / X 7 OXOXOXOXOXOXOXOXOXOXOXOXOXOXOXOXOXOXOXOX",
"OXOXOXOXOXOXOXOXOXOXOXOXOXOXOXOXOXOXOXOXOXOXOXOXE *.$.;.i d q r i o { @ i 1 > r u 0.g b.OXOXOXOXOXOXOXOXOXOXOXOXOXOXOXOXOXOXOXOX",
"OXOXOXOXOXOXOXOXOXOXOXOXOXOXOXOXOXOXOXOXOXOXOXOX{ 3.T 3.U J K U 5 V v.5 j D D P ..c.G N.OXOXOXOXOXOXOXOXOXOXOXOXOXOXOXOXOXOXOXOX",
"OXOXOXOXOXOXOXOXOXOXOXOXOXOXOXOXOXOXOXOXOXOXOXOXN.7.;.j _ U _ U * } v.L = ;.1.9.c.K 0.~.OXOXOXOXOXOXOXOXOXOXOXOXOXOXOXOXOXOXOXOX",
"OXOXOXOXOXOXOXOXOXOXP.  m OXOXOXOXOXOXOXOXOXOXOX_.7.6.) j i j 5 I z.n.z.V j 2.2.` X.0.}.OXOXOXOXOXOXOXOXOXOXOXOXOXOXOXOXOXOXOXOX",
"OXOXOXOXOXOXOXOXOXOX>.).Y.O ).OXOXOXOXOXOXOXOXOXoX0.9.5.7.O. .I  .z.c.v.] ] [ O.x.9.q.OXOXOXOXOXOXOXOXOXOXOXOXOXOXOXOXOXOXOXOXOX",
"OXOXOXOXOXOXOXOXOXOX>.E.(.[.s a.OXOXOXOXOXOXOXOXOX[.1.1.4.4.[ ! I | 4.Y [ [  .O.....'.OXOXOXOXOXOXOXOXOXOXOXOXOXOXOXOXOXOXOXOXOX",
"OXOXOXOXOXOXOXOXOXOX>.Y.(./.].%.h.OXOXOXOXOXOXOXOX.XX.X. .{ { [ D L J S ( { ! } { ..XXOXOXOXOXOXOXOXOXOXOXOXOXOXOXOXOXOXOXOXOXOX",
"OXOXOXOXOXOXOXOXOXOXT.r.)././.[.%.D.OXOXOXOXOXOXOXOX8.X.O.[ ( ( ( L D Y X.! P { { 8.OXOXOXOXOXOXOXOXOXOXOXOXOXOXOXOXOXOXOXOXOXOX",
"OXOXOXOXOXOXOXOXOXOXOXO /.(././.[.,.%.OXOXOXOXOXOXOXI.|  .] C G R U U U p 2 Y ] Q R.OXOXOXOXOXOXOXOXOXOXOXOXOXOXOXOXOXOXOXOXOXOX",
"OXOXOXOXOXOXOXOXOXOXOXoX: [./././.].h.,  XOXOXOXOXOXOX3.{ X.I 3 j R / j 7 U [ ! 0.OXOXOXOXOXOXOXOXOXOXOXOXOXOXOXOXOXOXOXOXOXOXOX",
"OXOXOXOXOXOXOXOXOXOXOXOXi.h.)././.^.).E.m s K.OXOXOXOXN.U  .{ ! A B B A U } { ! OXOXOXOXOXOXOXOXOXOXOXOXOXOXOXOXOXOXOXOXOXOXOXOX",
"OXOXOXOXOXOXOXOXOXOXOXOXOXO T.(./././.(.).[.j.O j.a.W.9.Q [ } [ Y L D ! X.o.Q !.OXOXOXOXOXOXOXOXOXOXOXOXOXOXOXOXOXOXOXOXOXOXOXOX",
"OXOXOXOXOXOXOXOXOXOXOXOXOXOX  ]././././././.(.`.].k.  ) ] F { O.| ( ! X.5.) ~ M :.K.|.OXOXOXOXOXOXOXOXOXOXOXOXOXOXOXOXOXOXOXOXOX",
"OXOXOXOXOXOXOXOXOXOXOXOXOXOXU.i.)././././././.^.).>.& { { ~ D ! ) _ _ / W F [ v.j   N ^.OXOXOXOXOXOXOXOXOXOXOXOXOXOXOXOXOXOXOXOX",
"OXOXOXOXOXOXOXOXOXOXOXOXOXOXOXO )./././././././.).i.0 Q { ] [ F S S V z J ) ! x.Q.B.+.t.T.OXOXOXOXOXOXOXOXOXOXOXOXOXOXOXOXOXOXOX",
"OXOXOXOXOXOXOXOXOXOXOXOXOXOXOXL.i.).(./././././.].e.5 W ~ ) ) P Q ! W W ~ { Q l.V.Q.t.d.f.C.J.+XOXOXOXOXOXOXOXOXOXOXOXOXOXOXOXOX",
"OXOXOXOXOXOXOXOXOXOXOXOXOXOXOXOXO /././.^./././.(.A.. Q W ) { ! P P W Q ~ Q ! l.V.1.u.e.r.C.A.O K.OXOXOXOXOXOXOXOXOXOXOXOXOXOXOX",
"OXOXOXOXOXOXOXOXOXOXOXOXOXOXOXOX X< [././././././.].,.5 Q ) ) ) ! ! Q ( Q W ~ ) ; +.:.w.w.Y.).[.+.j.OXOXOXOXOXOXOXOXOXOXOXOXOXOX",
"OXOXOXOXOXOXOXOXOXOXOXOXOXOXOXOXOXa.a.]././././.).(. X  + a ) { ) ! Q ! ! Z Z #   e.+.C.^.^././.|.: ].OXOXOXOXOXOXOXOXOXOXOXOXOX",
"OXOXOXOXOXOXOXOXOXOXOXOXOXOXOXOXOXOXf A.)././.).a.Y.).T.    X 4 S S S i &       n k.W.)./.^./././.(.f OXOXOXOXOXOXOXOXOXOXOXOXOX",
"OXOXOXOXOXOXOXOXOXOXOXOXOXOXOXOXOXOXOXs P.).(.).>.U.(.(.(.h.                d p.[.Y.T././././././.].s oXOXOXOXOXOXOXOXOXOXOXOXOX",
"OXOXOXOXOXOXOXOXOXOXOXOXOXOXOXOXOXOXOXOXs L.).).>.U.(././.).].).).L.Y.x .X|.[.].|.%.Y.(././././././.E.+.OXOXOXOXOXOXOXOXOXOXOXOX",
"OXOXOXOXOXOXOXOXOXOXOXOXOXOXOXOXOXOXOXOXOXO K.].>.U.(././././.(.).|.S.  f s i.L.v   ]./././././././.].f oXOXOXOXOXOXOXOXOXOXOXOX",
"OXOXOXOXOXOXOXOXOXOXOXOXOXOXOXOXOXOXOXOXOXOX  ].>.U./././.^.(.).K.  i.E.].[.J.N m #. X].).(././././.(.A.A.OXOXOXOXOXOXOXOXOXOXOX",
"OXOXOXOXOXOXOXOXOXOXOXOXOXOXOXOXOXOXOXOXOXOXP.m.r.U.).(.(.(.(.U.< ].).(././.).]./.>.< f ^ S./././././.U.g.OXOXOXOXOXOXOXOXOXOXOX",
"OXOXOXOXOXOXOXOXOXOXOXOXOXOXOXOXOXOXOXOXOXOX X>.U.%.P.K.K.K.`.^.%.[./././././././.).`.(.W.r.a.)././.(.U.g.OXOXOXOXOXOXOXOXOXOXOX",
"OXOXOXOXOXOXOXOXOXOXOXOXOXOXOXOXOXOXOXOXOXOX X%.U.  +.v m 9 < f   j.[.(.^././././././././.).)./././.(.U.g.OXOXOXOXOXOXOXOXOXOXOX",
"OXOXOXOXOXOXOXOXOXOXOXOXOXOXOXOXOXOXOXOXOXOXj.j.[.v }.].].].].].[.%.f A.].].(.(./././././././.^././.(.L.a.OXOXOXOXOXOXOXOXOXOXOX",
"OXOXOXOXOXOXOXOXOXOXOXOXOXOXOXOXOXOXOXOXOXOXO ].(.l ]./././.^./.(.}.r.>.s v k./.].].).(./.(.(.(.(.).[.O .XOXOXOXOXOXOXOXOXOXOXOX",
"OXOXOXOXOXOXOXOXOXOXOXOXOXOXOXOXOXOXOXOXOX Xf ].(.v |.).].).).[.Y.U.#.U.[.).i.  O < ,.P.L.P.L.L.P.C.O T.OXOXOXOXOXOXOXOXOXOXOXOX",
"OXOXOXOXOXOXOXOXOXOXOXOXOXOXOXOXOXOXOXOXOXf E.(.).O +.m m v s s m ,.,.E.).i.&.s [.|.a.>.A.j.A.j.j.K.OXOXOXOXOXOXOXOXOXOXOXOXOXOX",
"OXOXOXOXOXOXOXOXOXOXOXOXOXOXOXOXOXOXOXOX Xs ]././.(.E.^./.]. X X X[.{.].].[. X[./.(.A.K.OXOXOXOXOXOXOXOXOXOXOXOXOXOXOXOXOXOXOXOX",
"OXOXOXOXOXOXOXOXOXOXOXOXOXOXOXOXOXOXOXOXs W.(./././.(.).j.O f : s s s f s s s n ]./.^.: OXOXOXOXOXOXOXOXOXOXOXOXOXOXOXOXOXOXOXOX",
"OXOXOXOXOXOXOXOXOXOXOXOXOXOXOXOXOXOXOXL.i.)././././././.).].].].].].].`.].].|.#.T./.).a.#.OXOXOXOXOXOXOXOXOXOXOXOXOXOXOXOXOXOXOX",
"OXOXOXOXOXOXOXOXOXOXOXOXOXOXOXOXOXOXOX  ].(./.^././././.(.).].].].`.).(././.].#.W.(./.].p.%.OXOXOXOXOXOXOXOXOXOXOXOXOXOXOXOXOXOX",
"OXOXOXOXOXOXOXOXOXOXOXOXOXOXOXOXOXOXs Y.(././././.).].T.K.>.m < < #.g.K.S.(.[.p.K.(././.].g.+.OXOXOXOXOXOXOXOXOXOXOXOXOXOXOXOXOX",
"OXOXOXOXOXOXOXOXOXOXOXOXOXOXOXOXOXj.%.]./././.(.[.h.O m S.(.[.OXOX[.U.A.Z.v : ,./.]././.^.[.&.W.OXOXOXOXOXOXOXOXOXOXOXOXOXOXOXOX",
"OXOXOXOXOXOXOXOXOXOXOXOXOXOXOXOX/.: ]./././.].U.  j.OXOXOXOXOXOXOXOXOXOXOXOXOXW.m s ]./././.^.#.OXOXOXOXOXOXOXOXOXOXOXOXOXOXOXOX",
"OXOXOXOXOXOXOXOXOXOXOXOXOXOXOX.X  [.(././.[.%.m OXOXOXOXOXOXOXOXOXOXOXOXOXOXOXOXOX/.d ]././.`.s OXOXOXOXOXOXOXOXOXOXOXOXOXOXOXOX",
"OXOXOXOXOXOXOXOXOXOXOXOXOXOX].  ).(././.[.s J.OXOXOXOXOXOXOXOXOXOXOXOXOXOXOXOXOXOXOXs /././.].v OXOXOXOXOXOXOXOXOXOXOXOXOXOXOXOX",
"OXOXOXOXOXOXOXOXOXOXOXOXOXi.< (.(././.].>.h.OXOXOXOXOXOXOXOXOXOXOXOXOXOXOXOXOXOXOXOX,.W./././.f OXOXOXOXOXOXOXOXOXOXOXOXOXOXOXOX",
"OXOXOXOXOXOXOXOXOXOXOXY.O S.[./././.(.D.%.OXOXOXOXOXOXOXOXOXOXOXOXOXOXOXOXOXOXOXOXOX,.W./././.>.OXOXOXOXOXOXOXOXOXOXOXOXOXOXOXOX",
"OXOXOXOXOXOXOXOXOX+X: %.].(.^././.(.).  OXOXOXOXOXOXOXOXOXOXOXOXOXOXOXOXOXOXOXOXOXOXf )./.(.Y.%.OXOXOXOXOXOXOXOXOXOXOXOXOXOXOXOX",
"OXOXOXOXOXOXOXOXOX  T.]././././.(.].< [.OXOXOXOXOXOXOXOXOXOXOXOXOXOXOXOXOXOXOXOXOXOXO ]./.].v ].OXOXOXOXOXOXOXOXOXOXOXOXOXOXOXOX",
"OXOXOXOXOXOXOXOX,.U.(./././././.].j.i.OXOXOXOXOXOXOXOXOXOXOXOXOXOXOXOXOXOXOXOXOXOXT.r.)././.d OXOXOXOXOXOXOXOXOXOXOXOXOXOXOXOXOX",
"OXOXOXOXOXOXOXOXf [.^././././.].h.f OXOXOXOXOXOXOXOXOXOXOXOXOXOXOXOXOXOXOXOXOXOXOX&.E.(.[.s  XOXOXOXOXOXOXOXOXOXOXOXOXOXOXOXOXOX",
"OXOXOXOXOXOXOXOXO [.(.(.(.(.].>.#.OXOXOXOXOXOXOXOXOXOXOXOXOXOXOXOXOXOXOXOXOXOXOXOXm P.T.i.i.OXOXOXOXOXOXOXOXOXOXOXOXOXOXOXOXOXOX",
"OXOXOXOXOXOXOXOXA.v S.A.A.%.: P.OXOXOXOXOXOXOXOXOXOXOXOXOXOXOXOXOXOXOXOXOXOXOXOXOX+Xi.i.h.OXOXOXOXOXOXOXOXOXOXOXOXOXOXOXOXOXOXOX",
"OXOXOXOXOXOXOXOXOX).U.U.U.].OXOXOXOXOXOXOXOXOXOXOXOXOXOXOXOXOXOXOXOXOXOXOXOXOXOXOXOXOXOXOXOXOXOXOXOXOXOXOXOXOXOXOXOXOXOXOXOXOXOX"
};
